OstrichSans-Black.ufo
<glyph name="exclam" format="1">
  <advance width="146"/>
  <unicode hex="0021"/>
  <outline>
    <contour>
      <point x="0" y="739" type="line"/>
      <point x="94" y="739" type="line"/>
      <point x="94" y="163" type="line"/>
      <point x="0" y="163" type="line"/>
    </contour>
    <contour>
      <point x="0" y="2" type="line"/>
      <point x="0" y="108" type="line"/>
      <point x="94" y="108" type="line"/>
      <point x="94" y="2" type="line"/>
    </contour>
  </outline>
</glyph>
<glyph name="numbersign" format="1">
  <advance width="571"/>
  <unicode hex="0023"/>
  <outline>
    <contour>
      <point x="113" y="228" type="line"/>
      <point x="-20" y="228" type="line"/>
      <point x="-20" y="323" type="line"/>
      <point x="132" y="323" type="line"/>
      <point x="150" y="417" type="line"/>
      <point x="11" y="417" type="line"/>
      <point x="11" y="512" type="line"/>
      <point x="169" y="512" type="line"/>
      <point x="213" y="739" type="line"/>
      <point x="309" y="739" type="line"/>
      <point x="265" y="512" type="line"/>
      <point x="342" y="512" type="line"/>
      <point x="385" y="739" type="line"/>
      <point x="481" y="739" type="line"/>
      <point x="438" y="512" type="line"/>
      <point x="552" y="512" type="line"/>
      <point x="552" y="417" type="line"/>
      <point x="420" y="417" type="line"/>
      <point x="401" y="323" type="line"/>
      <point x="521" y="323" type="line"/>
      <point x="521" y="228" type="line"/>
      <point x="383" y="228" type="line"/>
      <point x="339" y="0" type="line"/>
      <point x="243" y="0" type="line"/>
      <point x="287" y="228" type="line"/>
      <point x="210" y="228" type="line"/>
      <point x="165" y="0" type="line"/>
      <point x="69" y="0" type="line"/>
    </contour>
    <contour>
      <point x="228" y="323" type="line"/>
      <point x="305" y="323" type="line"/>
      <point x="324" y="417" type="line"/>
      <point x="247" y="417" type="line"/>
    </contour>
  </outline>
</glyph>
<glyph name="ampersand" format="1">
  <advance width="506"/>
  <unicode hex="0026"/>
  <outline>
    <contour>
      <point x="128" y="2"/>
      <point x="80" y="23"/>
      <point x="47" y="62" type="curve" smooth="yes"/>
      <point x="16" y="99"/>
      <point x="0" y="145"/>
      <point x="0" y="199" type="curve" smooth="yes"/>
      <point x="0" y="251"/>
      <point x="14" y="290"/>
      <point x="35" y="320" type="curve" smooth="yes"/>
      <point x="55" y="350"/>
      <point x="82" y="372"/>
      <point x="107" y="393" type="curve" smooth="yes"/>
      <point x="112" y="397"/>
      <point x="117" y="401"/>
      <point x="121" y="405" type="curve"/>
      <point x="109" y="425"/>
      <point x="96" y="451"/>
      <point x="85" y="480" type="curve" smooth="yes"/>
      <point x="74" y="509"/>
      <point x="66" y="539"/>
      <point x="66" y="570" type="curve" smooth="yes"/>
      <point x="66" y="669"/>
      <point x="96" y="739"/>
      <point x="183" y="739" type="curve" smooth="yes"/>
      <point x="230" y="739"/>
      <point x="264" y="717"/>
      <point x="283" y="674" type="curve" smooth="yes"/>
      <point x="298" y="642"/>
      <point x="299" y="602"/>
      <point x="299" y="570" type="curve" smooth="yes"/>
      <point x="299" y="514"/>
      <point x="285" y="460"/>
      <point x="258" y="416" type="curve" smooth="yes"/>
      <point x="251" y="405"/>
      <point x="246" y="398"/>
      <point x="241" y="391" type="curve"/>
      <point x="320" y="257" type="line"/>
      <point x="321" y="268"/>
      <point x="322" y="280"/>
      <point x="322" y="291" type="curve" smooth="yes"/>
      <point x="322" y="302"/>
      <point x="322" y="312"/>
      <point x="322" y="321" type="curve" smooth="yes"/>
      <point x="322" y="369" type="line"/>
      <point x="417" y="369" type="line"/>
      <point x="417" y="321" type="line" smooth="yes"/>
      <point x="417" y="272"/>
      <point x="414" y="201"/>
      <point x="389" y="138" type="curve"/>
      <point x="474" y="2" type="line"/>
      <point x="362" y="2" type="line"/>
      <point x="330" y="52" type="line"/>
      <point x="291" y="19"/>
      <point x="242" y="2"/>
      <point x="183" y="2" type="curve" smooth="yes"/>
    </contour>
    <contour>
      <point x="168" y="634"/>
      <point x="166" y="627"/>
      <point x="164" y="617" type="curve" smooth="yes"/>
      <point x="162" y="607"/>
      <point x="161" y="591"/>
      <point x="161" y="570" type="curve" smooth="yes"/>
      <point x="161" y="543"/>
      <point x="172" y="511"/>
      <point x="187" y="483" type="curve"/>
      <point x="196" y="506"/>
      <point x="204" y="534"/>
      <point x="204" y="570" type="curve" smooth="yes"/>
      <point x="204" y="573"/>
      <point x="204" y="577"/>
      <point x="204" y="583" type="curve" smooth="yes"/>
      <point x="204" y="594"/>
      <point x="203" y="607"/>
      <point x="201" y="620" type="curve" smooth="yes"/>
      <point x="200" y="626"/>
      <point x="198" y="631"/>
      <point x="196" y="636" type="curve" smooth="yes"/>
      <point x="193" y="643"/>
      <point x="192" y="644"/>
      <point x="183" y="644" type="curve" smooth="yes"/>
      <point x="174" y="644"/>
      <point x="174" y="643"/>
      <point x="171" y="639" type="curve"/>
    </contour>
    <contour>
      <point x="168" y="321" type="line"/>
      <point x="145" y="301"/>
      <point x="126" y="286"/>
      <point x="114" y="268" type="curve"/>
      <point x="101" y="250"/>
      <point x="94" y="228"/>
      <point x="94" y="199" type="curve" smooth="yes"/>
      <point x="94" y="175"/>
      <point x="101" y="149"/>
      <point x="115" y="130" type="curve" smooth="yes"/>
      <point x="129" y="110"/>
      <point x="151" y="96"/>
      <point x="183" y="96" type="curve" smooth="yes"/>
      <point x="226" y="96"/>
      <point x="258" y="109"/>
      <point x="280" y="136" type="curve"/>
      <point x="171" y="324" type="line"/>
    </contour>
  </outline>
</glyph>
<glyph name="parenleft" format="1">
  <advance width="206"/>
  <unicode hex="0028"/>
  <outline>
    <contour>
      <point x="111" y="1" type="line"/>
      <point x="107" y="4"/>
      <point x="99" y="11"/>
      <point x="87" y="22" type="curve" smooth="yes"/>
      <point x="75" y="33"/>
      <point x="62" y="53"/>
      <point x="49" y="81" type="curve" smooth="yes"/>
      <point x="16" y="149"/>
      <point x="0" y="244"/>
      <point x="0" y="361" type="curve" smooth="yes"/>
      <point x="0" y="479"/>
      <point x="16" y="573"/>
      <point x="48" y="642" type="curve" smooth="yes"/>
      <point x="61" y="670"/>
      <point x="74" y="690"/>
      <point x="86" y="702" type="curve" smooth="yes"/>
      <point x="98" y="714"/>
      <point x="106" y="721"/>
      <point x="110" y="724" type="curve"/>
      <point x="161" y="645" type="line"/>
      <point x="162" y="645"/>
      <point x="162" y="645"/>
      <point x="163" y="646" type="curve"/>
      <point x="163" y="646"/>
      <point x="159" y="642"/>
      <point x="152" y="634" type="curve"/>
      <point x="145" y="625"/>
      <point x="137" y="610"/>
      <point x="128" y="589" type="curve" smooth="yes"/>
      <point x="111" y="546"/>
      <point x="94" y="474"/>
      <point x="94" y="361" type="curve" smooth="yes"/>
      <point x="94" y="253"/>
      <point x="110" y="184"/>
      <point x="126" y="142" type="curve" smooth="yes"/>
      <point x="134" y="121"/>
      <point x="142" y="106"/>
      <point x="149" y="97" type="curve" smooth="yes"/>
      <point x="156" y="88"/>
      <point x="161" y="82"/>
      <point x="162" y="81" type="curve"/>
    </contour>
  </outline>
</glyph>
<glyph name="parenright" format="1">
  <advance width="214"/>
  <unicode hex="0029"/>
  <outline>
    <contour>
      <point x="52" y="724" type="line"/>
      <point x="56" y="721"/>
      <point x="64" y="714"/>
      <point x="76" y="703" type="curve" smooth="yes"/>
      <point x="88" y="692"/>
      <point x="101" y="672"/>
      <point x="114" y="644" type="curve" smooth="yes"/>
      <point x="147" y="576"/>
      <point x="163" y="483"/>
      <point x="163" y="364" type="curve" smooth="yes"/>
      <point x="163" y="247"/>
      <point x="147" y="152"/>
      <point x="114" y="83" type="curve" smooth="yes"/>
      <point x="101" y="55"/>
      <point x="89" y="35"/>
      <point x="77" y="23" type="curve" smooth="yes"/>
      <point x="65" y="11"/>
      <point x="57" y="4"/>
      <point x="53" y="1" type="curve"/>
      <point x="2" y="80" type="line"/>
      <point x="1" y="80"/>
      <point x="1" y="80"/>
      <point x="0" y="79" type="curve"/>
      <point x="0" y="79"/>
      <point x="4" y="83"/>
      <point x="11" y="92" type="curve"/>
      <point x="18" y="100"/>
      <point x="26" y="115"/>
      <point x="35" y="136" type="curve"/>
      <point x="51" y="179"/>
      <point x="68" y="249"/>
      <point x="68" y="364" type="curve" smooth="yes"/>
      <point x="68" y="472"/>
      <point x="53" y="542"/>
      <point x="37" y="584" type="curve" smooth="yes"/>
      <point x="29" y="605"/>
      <point x="21" y="620"/>
      <point x="14" y="629" type="curve" smooth="yes"/>
      <point x="7" y="638"/>
      <point x="2" y="643"/>
      <point x="1" y="644" type="curve"/>
    </contour>
  </outline>
</glyph>
<glyph name="asterisk" format="1">
  <advance width="368"/>
  <unicode hex="002A"/>
  <outline>
    <contour>
      <point x="245" y="560" type="line"/>
      <point x="308" y="488" type="line"/>
      <point x="237" y="426" type="line"/>
      <point x="164" y="508" type="line"/>
      <point x="91" y="426" type="line"/>
      <point x="20" y="488" type="line"/>
      <point x="83" y="560" type="line"/>
      <point x="0" y="591" type="line"/>
      <point x="33" y="679" type="line"/>
      <point x="117" y="648" type="line"/>
      <point x="117" y="738" type="line"/>
      <point x="211" y="738" type="line"/>
      <point x="211" y="648" type="line"/>
      <point x="295" y="679" type="line"/>
      <point x="328" y="591" type="line"/>
    </contour>
  </outline>
</glyph>
<glyph name="zero" format="1">
  <advance width="376"/>
  <unicode hex="0030"/>
  <outline>
    <contour>
      <point x="49" y="0"/>
      <point x="0" y="88"/>
      <point x="0" y="213" type="curve" smooth="yes"/>
      <point x="0" y="526" type="line" smooth="yes"/>
      <point x="0" y="653"/>
      <point x="49" y="737"/>
      <point x="156" y="737" type="curve" smooth="yes"/>
      <point x="263" y="737"/>
      <point x="313" y="653"/>
      <point x="313" y="526" type="curve" smooth="yes"/>
      <point x="313" y="213" type="line" smooth="yes"/>
      <point x="313" y="86"/>
      <point x="263" y="0"/>
      <point x="156" y="0" type="curve" smooth="yes"/>
    </contour>
    <contour>
      <point x="148" y="643"/>
      <point x="132" y="643"/>
      <point x="119" y="628" type="curve"/>
      <point x="112" y="621"/>
      <point x="107" y="609"/>
      <point x="102" y="594" type="curve" smooth="yes"/>
      <point x="97" y="578"/>
      <point x="94" y="555"/>
      <point x="94" y="526" type="curve" smooth="yes"/>
      <point x="94" y="213" type="line" smooth="yes"/>
      <point x="94" y="183"/>
      <point x="97" y="160"/>
      <point x="102" y="144" type="curve" smooth="yes"/>
      <point x="112" y="112"/>
      <point x="126" y="99"/>
      <point x="140" y="96" type="curve"/>
      <point x="147" y="95"/>
      <point x="152" y="94"/>
      <point x="156" y="94" type="curve" smooth="yes"/>
      <point x="164" y="94"/>
      <point x="180" y="94"/>
      <point x="193" y="109" type="curve"/>
      <point x="200" y="116"/>
      <point x="206" y="128"/>
      <point x="211" y="144" type="curve" smooth="yes"/>
      <point x="216" y="160"/>
      <point x="218" y="183"/>
      <point x="218" y="213" type="curve" smooth="yes"/>
      <point x="218" y="526" type="line" smooth="yes"/>
      <point x="218" y="555"/>
      <point x="216" y="578"/>
      <point x="211" y="594" type="curve" smooth="yes"/>
      <point x="201" y="625"/>
      <point x="187" y="638"/>
      <point x="173" y="641" type="curve"/>
      <point x="166" y="642"/>
      <point x="160" y="643"/>
      <point x="156" y="643" type="curve" smooth="yes"/>
    </contour>
  </outline>
</glyph>
<glyph name="one" format="1">
  <advance width="275"/>
  <unicode hex="0031"/>
  <outline>
    <contour>
      <point x="209" y="737" type="line"/>
      <point x="209" y="0" type="line"/>
      <point x="115" y="0" type="line"/>
      <point x="115" y="566" type="line"/>
      <point x="73" y="508" type="line"/>
      <point x="0" y="569" type="line"/>
      <point x="118" y="737" type="line"/>
    </contour>
  </outline>
</glyph>
<glyph name="two" format="1">
  <advance width="360"/>
  <unicode hex="0032"/>
  <outline>
    <contour>
      <point x="313" y="0" type="line"/>
      <point x="265" y="0" type="line"/>
      <point x="156" y="0" type="line"/>
      <point x="0" y="0" type="line"/>
      <point x="0" y="47" type="line" smooth="yes"/>
      <point x="0" y="108"/>
      <point x="12" y="156"/>
      <point x="33" y="203" type="curve" smooth="yes"/>
      <point x="54" y="250"/>
      <point x="82" y="293"/>
      <point x="117" y="345" type="curve" smooth="yes"/>
      <point x="131" y="365"/>
      <point x="144" y="383"/>
      <point x="156" y="399" type="curve" smooth="yes"/>
      <point x="175" y="424"/>
      <point x="190" y="445"/>
      <point x="201" y="467" type="curve" smooth="yes"/>
      <point x="212" y="489"/>
      <point x="218" y="512"/>
      <point x="218" y="544" type="curve" smooth="yes"/>
      <point x="218" y="556"/>
      <point x="216" y="581"/>
      <point x="208" y="603" type="curve"/>
      <point x="199" y="625"/>
      <point x="184" y="643"/>
      <point x="156" y="643" type="curve" smooth="yes"/>
      <point x="145" y="643"/>
      <point x="130" y="643"/>
      <point x="117" y="631" type="curve"/>
      <point x="104" y="618"/>
      <point x="94" y="592"/>
      <point x="94" y="541" type="curve" smooth="yes"/>
      <point x="94" y="493" type="line"/>
      <point x="0" y="493" type="line"/>
      <point x="0" y="541" type="line" smooth="yes"/>
      <point x="0" y="601"/>
      <point x="12" y="648"/>
      <point x="37" y="681" type="curve"/>
      <point x="56" y="708"/>
      <point x="92" y="737"/>
      <point x="156" y="737" type="curve" smooth="yes"/>
      <point x="201" y="737"/>
      <point x="240" y="718"/>
      <point x="267" y="686" type="curve" smooth="yes"/>
      <point x="294" y="653"/>
      <point x="311" y="605"/>
      <point x="312" y="549" type="curve"/>
      <point x="313" y="549" type="line"/>
      <point x="313" y="541" type="line"/>
      <point x="312" y="541" type="line"/>
      <point x="311" y="494"/>
      <point x="301" y="459"/>
      <point x="286" y="428" type="curve" smooth="yes"/>
      <point x="271" y="396"/>
      <point x="252" y="370"/>
      <point x="232" y="343" type="curve" smooth="yes"/>
      <point x="220" y="327"/>
      <point x="208" y="311"/>
      <point x="196" y="292" type="curve" smooth="yes"/>
      <point x="168" y="249"/>
      <point x="145" y="216"/>
      <point x="129" y="185" type="curve" smooth="yes"/>
      <point x="113" y="153"/>
      <point x="103" y="126"/>
      <point x="98" y="94" type="curve"/>
      <point x="156" y="94" type="line"/>
      <point x="265" y="94" type="line"/>
      <point x="313" y="94" type="line"/>
    </contour>
  </outline>
</glyph>
<glyph name="three" format="1">
  <advance width="360"/>
  <unicode hex="0033"/>
  <outline>
    <contour>
      <point x="279" y="336"/>
      <point x="313" y="286"/>
      <point x="313" y="205" type="curve" smooth="yes"/>
      <point x="313" y="150"/>
      <point x="301" y="104"/>
      <point x="278" y="68" type="curve" smooth="yes"/>
      <point x="249" y="23"/>
      <point x="209" y="0"/>
      <point x="156" y="0" type="curve" smooth="yes"/>
      <point x="104" y="0"/>
      <point x="64" y="21"/>
      <point x="35" y="62" type="curve"/>
      <point x="12" y="98"/>
      <point x="0" y="146"/>
      <point x="0" y="210" type="curve" smooth="yes"/>
      <point x="0" y="257" type="line"/>
      <point x="94" y="257" type="line"/>
      <point x="94" y="210" type="line" smooth="yes"/>
      <point x="94" y="182"/>
      <point x="96" y="161"/>
      <point x="101" y="147" type="curve"/>
      <point x="109" y="118"/>
      <point x="116" y="109"/>
      <point x="128" y="101" type="curve"/>
      <point x="134" y="96"/>
      <point x="143" y="94"/>
      <point x="156" y="94" type="curve" smooth="yes"/>
      <point x="185" y="94"/>
      <point x="201" y="118"/>
      <point x="209" y="143" type="curve" smooth="yes"/>
      <point x="217" y="168"/>
      <point x="218" y="196"/>
      <point x="218" y="205" type="curve" smooth="yes"/>
      <point x="218" y="249"/>
      <point x="203" y="278"/>
      <point x="185" y="296" type="curve" smooth="yes"/>
      <point x="167" y="314"/>
      <point x="143" y="321"/>
      <point x="130" y="321" type="curve" smooth="yes"/>
      <point x="83" y="321" type="line"/>
      <point x="84" y="321" type="line"/>
      <point x="84" y="415" type="line"/>
      <point x="130" y="415" type="line" smooth="yes"/>
      <point x="143" y="415"/>
      <point x="167" y="423"/>
      <point x="185" y="441" type="curve" smooth="yes"/>
      <point x="203" y="459"/>
      <point x="218" y="487"/>
      <point x="218" y="531" type="curve" smooth="yes"/>
      <point x="218" y="534"/>
      <point x="218" y="541"/>
      <point x="217" y="553" type="curve" smooth="yes"/>
      <point x="215" y="577"/>
      <point x="207" y="606"/>
      <point x="191" y="627" type="curve" smooth="yes"/>
      <point x="182" y="638"/>
      <point x="171" y="643"/>
      <point x="156" y="643" type="curve" smooth="yes"/>
      <point x="148" y="643"/>
      <point x="132" y="643"/>
      <point x="119" y="628" type="curve"/>
      <point x="112" y="621"/>
      <point x="107" y="609"/>
      <point x="102" y="594" type="curve" smooth="yes"/>
      <point x="97" y="578"/>
      <point x="94" y="555"/>
      <point x="94" y="526" type="curve" smooth="yes"/>
      <point x="94" y="479" type="line"/>
      <point x="0" y="479" type="line"/>
      <point x="0" y="526" type="line" smooth="yes"/>
      <point x="0" y="653"/>
      <point x="51" y="737"/>
      <point x="156" y="737" type="curve" smooth="yes"/>
      <point x="261" y="737"/>
      <point x="313" y="642"/>
      <point x="313" y="531" type="curve" smooth="yes"/>
      <point x="313" y="450"/>
      <point x="279" y="400"/>
      <point x="250" y="373" type="curve"/>
      <point x="245" y="368" type="line"/>
      <point x="246" y="367"/>
      <point x="247" y="367"/>
      <point x="248" y="366" type="curve"/>
      <point x="248" y="365"/>
      <point x="249" y="364"/>
      <point x="250" y="363" type="curve"/>
    </contour>
  </outline>
</glyph>
<glyph name="five" format="1">
  <advance width="372"/>
  <unicode hex="0035"/>
  <outline>
    <contour>
      <point x="94" y="643" type="line"/>
      <point x="94" y="471" type="line"/>
      <point x="113" y="479"/>
      <point x="133" y="483"/>
      <point x="156" y="483" type="curve" smooth="yes"/>
      <point x="221" y="483"/>
      <point x="258" y="451"/>
      <point x="277" y="424" type="curve" smooth="yes"/>
      <point x="301" y="389"/>
      <point x="313" y="340"/>
      <point x="313" y="279" type="curve" smooth="yes"/>
      <point x="313" y="207" type="line" smooth="yes"/>
      <point x="313" y="152"/>
      <point x="301" y="107"/>
      <point x="278" y="70" type="curve" smooth="yes"/>
      <point x="250" y="25"/>
      <point x="207" y="0"/>
      <point x="156" y="0" type="curve" smooth="yes"/>
      <point x="109" y="0"/>
      <point x="68" y="19"/>
      <point x="39" y="54" type="curve" smooth="yes"/>
      <point x="14" y="83"/>
      <point x="0" y="121"/>
      <point x="0" y="157" type="curve" smooth="yes"/>
      <point x="0" y="173" type="line"/>
      <point x="94" y="173" type="line"/>
      <point x="94" y="157" type="line" smooth="yes"/>
      <point x="94" y="149"/>
      <point x="98" y="132"/>
      <point x="108" y="119" type="curve" smooth="yes"/>
      <point x="118" y="106"/>
      <point x="132" y="94"/>
      <point x="156" y="94" type="curve" smooth="yes"/>
      <point x="180" y="94"/>
      <point x="196" y="111"/>
      <point x="205" y="135" type="curve" smooth="yes"/>
      <point x="214" y="158"/>
      <point x="218" y="186"/>
      <point x="218" y="207" type="curve" smooth="yes"/>
      <point x="218" y="279" type="line" smooth="yes"/>
      <point x="218" y="305"/>
      <point x="216" y="325"/>
      <point x="212" y="339" type="curve" smooth="yes"/>
      <point x="204" y="367"/>
      <point x="197" y="375"/>
      <point x="185" y="383" type="curve"/>
      <point x="179" y="386"/>
      <point x="169" y="388"/>
      <point x="156" y="388" type="curve" smooth="yes"/>
      <point x="129" y="388"/>
      <point x="120" y="377"/>
      <point x="113" y="369" type="curve"/>
      <point x="100" y="352"/>
      <point x="94" y="328"/>
      <point x="94" y="295" type="curve" smooth="yes"/>
      <point x="94" y="263" type="line"/>
      <point x="94" y="262" type="line"/>
      <point x="0" y="262" type="line"/>
      <point x="0" y="263" type="line"/>
      <point x="0" y="295" type="line"/>
      <point x="0" y="737" type="line"/>
      <point x="94" y="737" type="line"/>
      <point x="313" y="737" type="line"/>
      <point x="313" y="643" type="line"/>
    </contour>
  </outline>
</glyph>
<glyph name="six" format="1">
  <advance width="368"/>
  <unicode hex="0036"/>
  <outline>
    <contour>
      <point x="55" y="0"/>
      <point x="0" y="80"/>
      <point x="0" y="189" type="curve" smooth="yes"/>
      <point x="0" y="285" type="line"/>
      <point x="0" y="286" type="line"/>
      <point x="0" y="485" type="line" smooth="yes"/>
      <point x="0" y="558"/>
      <point x="11" y="616"/>
      <point x="33" y="658" type="curve" smooth="yes"/>
      <point x="60" y="709"/>
      <point x="103" y="737"/>
      <point x="156" y="737" type="curve" smooth="yes"/>
      <point x="207" y="737"/>
      <point x="248" y="718"/>
      <point x="276" y="681" type="curve" smooth="yes"/>
      <point x="301" y="647"/>
      <point x="313" y="604"/>
      <point x="313" y="552" type="curve" smooth="yes"/>
      <point x="313" y="520" type="line"/>
      <point x="218" y="520" type="line"/>
      <point x="218" y="552" type="line" smooth="yes"/>
      <point x="218" y="585"/>
      <point x="212" y="609"/>
      <point x="200" y="624" type="curve"/>
      <point x="193" y="632"/>
      <point x="183" y="643"/>
      <point x="156" y="643" type="curve" smooth="yes"/>
      <point x="128" y="643"/>
      <point x="113" y="616"/>
      <point x="105" y="582" type="curve" smooth="yes"/>
      <point x="96" y="548"/>
      <point x="94" y="509"/>
      <point x="94" y="485" type="curve" smooth="yes"/>
      <point x="94" y="478" type="line"/>
      <point x="112" y="487"/>
      <point x="133" y="492"/>
      <point x="156" y="492" type="curve" smooth="yes"/>
      <point x="261" y="492"/>
      <point x="313" y="410"/>
      <point x="313" y="285" type="curve" smooth="yes"/>
      <point x="313" y="211" type="line" smooth="yes"/>
      <point x="313" y="148"/>
      <point x="297" y="95"/>
      <point x="270" y="58" type="curve" smooth="yes"/>
      <point x="242" y="21"/>
      <point x="203" y="0"/>
      <point x="156" y="0" type="curve" smooth="yes"/>
    </contour>
    <contour>
      <point x="94" y="189" type="line" smooth="yes"/>
      <point x="94" y="156"/>
      <point x="100" y="131"/>
      <point x="113" y="114" type="curve"/>
      <point x="120" y="106"/>
      <point x="129" y="94"/>
      <point x="156" y="94" type="curve" smooth="yes"/>
      <point x="180" y="94"/>
      <point x="196" y="112"/>
      <point x="205" y="136" type="curve" smooth="yes"/>
      <point x="214" y="160"/>
      <point x="218" y="190"/>
      <point x="218" y="211" type="curve" smooth="yes"/>
      <point x="218" y="285" type="line" smooth="yes"/>
      <point x="218" y="313"/>
      <point x="216" y="335"/>
      <point x="211" y="350" type="curve"/>
      <point x="202" y="381"/>
      <point x="189" y="393"/>
      <point x="174" y="396" type="curve"/>
      <point x="167" y="397"/>
      <point x="161" y="398"/>
      <point x="156" y="398" type="curve" smooth="yes"/>
      <point x="127" y="398"/>
      <point x="112" y="374"/>
      <point x="104" y="348" type="curve" smooth="yes"/>
      <point x="96" y="322"/>
      <point x="94" y="294"/>
      <point x="94" y="286" type="curve" smooth="yes"/>
    </contour>
  </outline>
</glyph>
<glyph name="seven" format="1">
  <advance width="429"/>
  <unicode hex="0037"/>
  <outline>
    <contour>
      <point x="283" y="643" type="line"/>
      <point x="0" y="643" type="line"/>
      <point x="0" y="737" type="line"/>
      <point x="387" y="737" type="line"/>
      <point x="387" y="648" type="line"/>
      <point x="115" y="0" type="line"/>
      <point x="12" y="0" type="line"/>
    </contour>
  </outline>
</glyph>
<glyph name="nine" format="1">
  <advance width="368"/>
  <unicode hex="0039"/>
  <outline>
    <contour>
      <point x="105" y="0"/>
      <point x="64" y="20"/>
      <point x="36" y="59" type="curve" smooth="yes"/>
      <point x="12" y="93"/>
      <point x="0" y="138"/>
      <point x="0" y="194" type="curve" smooth="yes"/>
      <point x="0" y="226" type="line"/>
      <point x="94" y="226" type="line"/>
      <point x="94" y="194" type="line" smooth="yes"/>
      <point x="94" y="143"/>
      <point x="106" y="119"/>
      <point x="120" y="107" type="curve"/>
      <point x="134" y="94"/>
      <point x="148" y="94"/>
      <point x="156" y="94" type="curve" smooth="yes"/>
      <point x="183" y="94"/>
      <point x="199" y="119"/>
      <point x="208" y="151" type="curve" smooth="yes"/>
      <point x="216" y="183"/>
      <point x="218" y="222"/>
      <point x="218" y="251" type="curve" smooth="yes"/>
      <point x="218" y="258" type="line"/>
      <point x="198" y="249"/>
      <point x="177" y="244"/>
      <point x="156" y="244" type="curve" smooth="yes"/>
      <point x="51" y="244"/>
      <point x="0" y="327"/>
      <point x="0" y="454" type="curve" smooth="yes"/>
      <point x="0" y="528" type="line" smooth="yes"/>
      <point x="0" y="584"/>
      <point x="12" y="631"/>
      <point x="35" y="668" type="curve" smooth="yes"/>
      <point x="63" y="713"/>
      <point x="105" y="737"/>
      <point x="156" y="737" type="curve" smooth="yes"/>
      <point x="260" y="737"/>
      <point x="313" y="657"/>
      <point x="313" y="550" type="curve" smooth="yes"/>
      <point x="313" y="454" type="line"/>
      <point x="313" y="452" type="line"/>
      <point x="313" y="251" type="line" smooth="yes"/>
      <point x="313" y="178"/>
      <point x="301" y="119"/>
      <point x="280" y="78" type="curve" smooth="yes"/>
      <point x="253" y="27"/>
      <point x="209" y="0"/>
      <point x="156" y="0" type="curve" smooth="yes"/>
    </contour>
    <contour>
      <point x="125" y="643"/>
      <point x="110" y="617"/>
      <point x="102" y="590" type="curve" smooth="yes"/>
      <point x="94" y="563"/>
      <point x="94" y="533"/>
      <point x="94" y="528" type="curve" smooth="yes"/>
      <point x="94" y="454" type="line" smooth="yes"/>
      <point x="94" y="425"/>
      <point x="96" y="403"/>
      <point x="101" y="388" type="curve"/>
      <point x="110" y="356"/>
      <point x="124" y="344"/>
      <point x="138" y="341" type="curve"/>
      <point x="145" y="340"/>
      <point x="151" y="339"/>
      <point x="156" y="339" type="curve" smooth="yes"/>
      <point x="185" y="339"/>
      <point x="201" y="363"/>
      <point x="209" y="390" type="curve" smooth="yes"/>
      <point x="217" y="417"/>
      <point x="218" y="445"/>
      <point x="218" y="453" type="curve" smooth="yes"/>
      <point x="218" y="550" type="line" smooth="yes"/>
      <point x="218" y="597"/>
      <point x="206" y="620"/>
      <point x="193" y="632" type="curve"/>
      <point x="180" y="643"/>
      <point x="164" y="643"/>
      <point x="156" y="643" type="curve" smooth="yes"/>
    </contour>
  </outline>
</glyph>
<glyph name="question" format="1">
  <advance width="364"/>
  <unicode hex="003F"/>
  <outline>
    <contour>
      <point x="313" y="533" type="line"/>
      <point x="312" y="533" type="line"/>
      <point x="311" y="480"/>
      <point x="292" y="435"/>
      <point x="270" y="400" type="curve" smooth="yes"/>
      <point x="248" y="364"/>
      <point x="221" y="337"/>
      <point x="204" y="320" type="curve" smooth="yes"/>
      <point x="192" y="308" type="line"/>
      <point x="177" y="289"/>
      <point x="177" y="263"/>
      <point x="177" y="212" type="curve" smooth="yes"/>
      <point x="177" y="162" type="line"/>
      <point x="82" y="162" type="line"/>
      <point x="82" y="212" type="line" smooth="yes"/>
      <point x="82" y="241"/>
      <point x="82" y="271"/>
      <point x="87" y="297" type="curve"/>
      <point x="91" y="323"/>
      <point x="101" y="346"/>
      <point x="120" y="369" type="curve"/>
      <point x="123" y="372"/>
      <point x="125" y="375"/>
      <point x="128" y="378" type="curve" smooth="yes"/>
      <point x="131" y="381"/>
      <point x="134" y="384"/>
      <point x="137" y="387" type="curve" smooth="yes"/>
      <point x="150" y="400"/>
      <point x="171" y="421"/>
      <point x="188" y="446" type="curve" smooth="yes"/>
      <point x="204" y="471"/>
      <point x="217" y="502"/>
      <point x="218" y="538" type="curve" smooth="yes"/>
      <point x="218" y="558"/>
      <point x="213" y="585"/>
      <point x="204" y="606" type="curve" smooth="yes"/>
      <point x="195" y="627"/>
      <point x="180" y="643"/>
      <point x="156" y="643" type="curve" smooth="yes"/>
      <point x="147" y="643"/>
      <point x="131" y="644"/>
      <point x="118" y="630" type="curve" smooth="yes"/>
      <point x="105" y="616"/>
      <point x="94" y="588"/>
      <point x="94" y="533" type="curve" smooth="yes"/>
      <point x="94" y="486" type="line"/>
      <point x="0" y="486" type="line"/>
      <point x="0" y="533" type="line" smooth="yes"/>
      <point x="0" y="654"/>
      <point x="52" y="737"/>
      <point x="156" y="737" type="curve" smooth="yes"/>
      <point x="207" y="737"/>
      <point x="250" y="713"/>
      <point x="278" y="668" type="curve" smooth="yes"/>
      <point x="299" y="634"/>
      <point x="311" y="592"/>
      <point x="312" y="542" type="curve"/>
      <point x="313" y="542" type="line"/>
    </contour>
    <contour>
      <point x="82" y="106" type="line"/>
      <point x="176" y="106" type="line"/>
      <point x="176" y="0" type="line"/>
      <point x="82" y="0" type="line"/>
    </contour>
  </outline>
</glyph>
<glyph name="B" format="1">
  <advance width="376"/>
  <unicode hex="0042"/>
  <outline>
    <contour>
      <point x="276" y="365"/>
      <point x="279" y="362"/>
      <point x="280" y="359" type="curve"/>
      <point x="309" y="324"/>
      <point x="323" y="274"/>
      <point x="323" y="207" type="curve" smooth="yes"/>
      <point x="323" y="140"/>
      <point x="309" y="89"/>
      <point x="280" y="56" type="curve"/>
      <point x="250" y="19"/>
      <point x="204" y="0"/>
      <point x="142" y="0" type="curve" smooth="yes"/>
      <point x="94" y="0" type="line"/>
      <point x="0" y="0" type="line"/>
      <point x="0" y="94" type="line"/>
      <point x="0" y="737" type="line"/>
      <point x="142" y="737" type="line" smooth="yes"/>
      <point x="205" y="737"/>
      <point x="251" y="718"/>
      <point x="280" y="681" type="curve"/>
      <point x="309" y="648"/>
      <point x="323" y="597"/>
      <point x="323" y="530" type="curve" smooth="yes"/>
      <point x="323" y="463"/>
      <point x="309" y="413"/>
      <point x="280" y="378" type="curve"/>
      <point x="279" y="376"/>
      <point x="276" y="373"/>
      <point x="272" y="369" type="curve"/>
    </contour>
    <contour>
      <point x="94" y="416" type="line"/>
      <point x="142" y="416" type="line" smooth="yes"/>
      <point x="163" y="416"/>
      <point x="179" y="419"/>
      <point x="188" y="424" type="curve" smooth="yes"/>
      <point x="197" y="429"/>
      <point x="204" y="433"/>
      <point x="207" y="438" type="curve"/>
      <point x="221" y="455"/>
      <point x="228" y="485"/>
      <point x="228" y="530" type="curve" smooth="yes"/>
      <point x="228" y="582"/>
      <point x="219" y="610"/>
      <point x="204" y="626" type="curve"/>
      <point x="188" y="641"/>
      <point x="166" y="643"/>
      <point x="142" y="643" type="curve" smooth="yes"/>
      <point x="94" y="643" type="line"/>
    </contour>
    <contour>
      <point x="142" y="94" type="line" smooth="yes"/>
      <point x="166" y="94"/>
      <point x="188" y="96"/>
      <point x="204" y="112" type="curve" smooth="yes"/>
      <point x="219" y="127"/>
      <point x="228" y="155"/>
      <point x="228" y="207" type="curve" smooth="yes"/>
      <point x="228" y="260"/>
      <point x="218" y="289"/>
      <point x="203" y="305" type="curve"/>
      <point x="187" y="320"/>
      <point x="166" y="322"/>
      <point x="142" y="322" type="curve" smooth="yes"/>
      <point x="94" y="322" type="line"/>
      <point x="94" y="94" type="line"/>
    </contour>
  </outline>
</glyph>
<glyph name="H" format="1">
  <advance width="409"/>
  <unicode hex="0048"/>
  <outline>
    <contour>
      <point x="331" y="737" type="line"/>
      <point x="331" y="0" type="line"/>
      <point x="236" y="0" type="line"/>
      <point x="236" y="321" type="line"/>
      <point x="94" y="321" type="line"/>
      <point x="94" y="0" type="line"/>
      <point x="0" y="0" type="line"/>
      <point x="0" y="737" type="line"/>
      <point x="94" y="737" type="line"/>
      <point x="94" y="416" type="line"/>
      <point x="236" y="416" type="line"/>
      <point x="236" y="737" type="line"/>
    </contour>
  </outline>
</glyph>
<glyph name="J" format="1">
  <advance width="405"/>
  <unicode hex="004A"/>
  <outline>
    <contour>
      <point x="98" y="0"/>
      <point x="60" y="30"/>
      <point x="40" y="54" type="curve" smooth="yes"/>
      <point x="13" y="87"/>
      <point x="0" y="135"/>
      <point x="0" y="196" type="curve" smooth="yes"/>
      <point x="0" y="244" type="line"/>
      <point x="94" y="244" type="line"/>
      <point x="94" y="196" type="line" smooth="yes"/>
      <point x="94" y="145"/>
      <point x="105" y="119"/>
      <point x="120" y="107" type="curve"/>
      <point x="135" y="94"/>
      <point x="152" y="94"/>
      <point x="165" y="94" type="curve" smooth="yes"/>
      <point x="182" y="94"/>
      <point x="194" y="96"/>
      <point x="201" y="101" type="curve"/>
      <point x="208" y="105"/>
      <point x="214" y="109"/>
      <point x="217" y="114" type="curve"/>
      <point x="230" y="130"/>
      <point x="236" y="157"/>
      <point x="236" y="196" type="curve" smooth="yes"/>
      <point x="236" y="737" type="line"/>
      <point x="330" y="737" type="line"/>
      <point x="330" y="196" type="line" smooth="yes"/>
      <point x="330" y="135"/>
      <point x="317" y="87"/>
      <point x="290" y="54" type="curve" smooth="yes"/>
      <point x="271" y="30"/>
      <point x="233" y="0"/>
      <point x="165" y="0" type="curve" smooth="yes"/>
    </contour>
  </outline>
</glyph>
<glyph name="K" format="1">
  <advance width="449"/>
  <unicode hex="004B"/>
  <outline>
    <contour>
      <point x="302" y="1" type="line"/>
      <point x="134" y="303" type="line"/>
      <point x="95" y="242" type="line"/>
      <point x="95" y="1" type="line"/>
      <point x="1" y="1" type="line"/>
      <point x="1" y="268" type="line"/>
      <point x="0" y="268" type="line"/>
      <point x="1" y="270" type="line"/>
      <point x="1" y="738" type="line"/>
      <point x="95" y="738" type="line"/>
      <point x="95" y="416" type="line"/>
      <point x="304" y="738" type="line"/>
      <point x="417" y="738" type="line"/>
      <point x="193" y="393" type="line"/>
      <point x="410" y="1" type="line"/>
    </contour>
  </outline>
</glyph>
<glyph name="M" format="1">
  <advance width="538"/>
  <unicode hex="004D"/>
  <outline>
    <contour>
      <point x="94" y="1" type="line"/>
      <point x="0" y="1" type="line"/>
      <point x="0" y="738" type="line"/>
      <point x="83" y="738" type="line"/>
      <point x="232" y="219" type="line"/>
      <point x="380" y="738" type="line"/>
      <point x="463" y="738" type="line"/>
      <point x="463" y="1" type="line"/>
      <point x="369" y="1" type="line"/>
      <point x="369" y="354" type="line"/>
      <point x="267" y="1" type="line"/>
      <point x="196" y="1" type="line"/>
      <point x="94" y="354" type="line"/>
    </contour>
  </outline>
</glyph>
<glyph name="O" format="1">
  <advance width="405"/>
  <unicode hex="004F"/>
  <outline>
    <contour>
      <point x="104" y="1"/>
      <point x="63" y="32"/>
      <point x="42" y="59" type="curve" smooth="yes"/>
      <point x="14" y="95"/>
      <point x="0" y="146"/>
      <point x="0" y="211" type="curve" smooth="yes"/>
      <point x="0" y="528" type="line" smooth="yes"/>
      <point x="0" y="593"/>
      <point x="14" y="644"/>
      <point x="42" y="680" type="curve"/>
      <point x="53" y="693"/>
      <point x="68" y="707"/>
      <point x="90" y="719" type="curve"/>
      <point x="112" y="730"/>
      <point x="139" y="738"/>
      <point x="175" y="738" type="curve" smooth="yes"/>
      <point x="247" y="738"/>
      <point x="287" y="707"/>
      <point x="308" y="680" type="curve" smooth="yes"/>
      <point x="336" y="644"/>
      <point x="350" y="593"/>
      <point x="350" y="528" type="curve" smooth="yes"/>
      <point x="350" y="211" type="line" smooth="yes"/>
      <point x="350" y="146"/>
      <point x="336" y="95"/>
      <point x="308" y="59" type="curve" smooth="yes"/>
      <point x="287" y="32"/>
      <point x="247" y="1"/>
      <point x="175" y="1" type="curve" smooth="yes"/>
    </contour>
    <contour>
      <point x="160" y="643"/>
      <point x="141" y="643"/>
      <point x="124" y="629" type="curve" smooth="yes"/>
      <point x="107" y="615"/>
      <point x="94" y="585"/>
      <point x="94" y="528" type="curve" smooth="yes"/>
      <point x="94" y="211" type="line" smooth="yes"/>
      <point x="94" y="152"/>
      <point x="107" y="124"/>
      <point x="124" y="110" type="curve" smooth="yes"/>
      <point x="141" y="96"/>
      <point x="160" y="95"/>
      <point x="175" y="95" type="curve" smooth="yes"/>
      <point x="188" y="95"/>
      <point x="209" y="96"/>
      <point x="226" y="110" type="curve" smooth="yes"/>
      <point x="243" y="124"/>
      <point x="256" y="152"/>
      <point x="256" y="211" type="curve" smooth="yes"/>
      <point x="256" y="528" type="line" smooth="yes"/>
      <point x="256" y="585"/>
      <point x="243" y="615"/>
      <point x="226" y="629" type="curve" smooth="yes"/>
      <point x="209" y="643"/>
      <point x="188" y="643"/>
      <point x="175" y="643" type="curve" smooth="yes"/>
    </contour>
  </outline>
</glyph>
<glyph name="T" format="1">
  <advance width="461"/>
  <unicode hex="0054"/>
  <outline>
    <contour>
      <point x="417" y="643" type="line"/>
      <point x="256" y="643" type="line"/>
      <point x="256" y="1" type="line"/>
      <point x="161" y="1" type="line"/>
      <point x="161" y="643" type="line"/>
      <point x="0" y="643" type="line"/>
      <point x="0" y="738" type="line"/>
      <point x="417" y="738" type="line"/>
    </contour>
  </outline>
</glyph>
<glyph name="X" format="1">
  <advance width="498"/>
  <unicode hex="0058"/>
  <outline>
    <contour>
      <point x="279" y="369" type="line"/>
      <point x="452" y="0" type="line"/>
      <point x="348" y="0" type="line"/>
      <point x="227" y="258" type="line"/>
      <point x="105" y="0" type="line"/>
      <point x="0" y="0" type="line"/>
      <point x="174" y="369" type="line"/>
      <point x="3" y="737" type="line"/>
      <point x="108" y="737" type="line"/>
      <point x="227" y="480" type="line"/>
      <point x="349" y="737" type="line"/>
      <point x="454" y="737" type="line"/>
    </contour>
  </outline>
</glyph>
<glyph name="underscore" format="1">
  <advance width="465"/>
  <unicode hex="005F"/>
  <outline>
    <contour>
      <point x="467" y="-36" type="line"/>
      <point x="0" y="-36" type="line"/>
      <point x="0" y="0" type="line"/>
      <point x="467" y="0" type="line"/>
    </contour>
    <contour>
      <point x="0" y="-59" type="line"/>
      <point x="467" y="-59" type="line"/>
      <point x="467" y="-95" type="line"/>
      <point x="0" y="-95" type="line"/>
    </contour>
  </outline>
</glyph>
<glyph name="q" format="1">
  <advance width="405"/>
  <unicode hex="0071"/>
  <outline>
    <contour>
      <point x="296" y="-44" type="line"/>
      <point x="248" y="14" type="line"/>
      <point x="228" y="6"/>
      <point x="204" y="0"/>
      <point x="175" y="0" type="curve" smooth="yes"/>
      <point x="139" y="0"/>
      <point x="112" y="8"/>
      <point x="90" y="20" type="curve" smooth="yes"/>
      <point x="68" y="32"/>
      <point x="53" y="48"/>
      <point x="42" y="61" type="curve"/>
      <point x="14" y="98"/>
      <point x="0" y="149"/>
      <point x="0" y="214" type="curve" smooth="yes"/>
      <point x="0" y="531" type="line" smooth="yes"/>
      <point x="0" y="620"/>
      <point x="27" y="673"/>
      <point x="63" y="702" type="curve" smooth="yes"/>
      <point x="98" y="731"/>
      <point x="142" y="738"/>
      <point x="175" y="738" type="curve" smooth="yes"/>
      <point x="207" y="738"/>
      <point x="251" y="731"/>
      <point x="287" y="702" type="curve" smooth="yes"/>
      <point x="323" y="673"/>
      <point x="350" y="620"/>
      <point x="350" y="531" type="curve" smooth="yes"/>
      <point x="350" y="214" type="line" smooth="yes"/>
      <point x="350" y="158"/>
      <point x="339" y="112"/>
      <point x="318" y="77" type="curve"/>
      <point x="419" y="-44" type="line"/>
    </contour>
    <contour>
      <point x="182" y="95" type="line"/>
      <point x="111" y="183" type="line"/>
      <point x="229" y="183" type="line"/>
      <point x="250" y="157" type="line"/>
      <point x="253" y="174"/>
      <point x="255" y="193"/>
      <point x="255" y="214" type="curve" smooth="yes"/>
      <point x="255" y="531" type="line" smooth="yes"/>
      <point x="255" y="583"/>
      <point x="245" y="610"/>
      <point x="230" y="626" type="curve"/>
      <point x="214" y="641"/>
      <point x="195" y="643"/>
      <point x="175" y="643" type="curve" smooth="yes"/>
      <point x="155" y="643"/>
      <point x="135" y="641"/>
      <point x="120" y="626" type="curve" smooth="yes"/>
      <point x="104" y="610"/>
      <point x="94" y="583"/>
      <point x="94" y="531" type="curve" smooth="yes"/>
      <point x="94" y="214" type="line" smooth="yes"/>
      <point x="94" y="170"/>
      <point x="102" y="138"/>
      <point x="117" y="119" type="curve"/>
      <point x="125" y="108"/>
      <point x="139" y="95"/>
      <point x="175" y="95" type="curve" smooth="yes"/>
    </contour>
  </outline>
</glyph>
<glyph name="u" format="1">
  <advance width="405"/>
  <unicode hex="0075"/>
  <outline>
    <contour>
      <point x="98" y="1"/>
      <point x="60" y="29"/>
      <point x="40" y="56" type="curve"/>
      <point x="13" y="89"/>
      <point x="0" y="136"/>
      <point x="0" y="197" type="curve" smooth="yes"/>
      <point x="0" y="738" type="line"/>
      <point x="94" y="738" type="line"/>
      <point x="94" y="197" type="line" smooth="yes"/>
      <point x="94" y="146"/>
      <point x="105" y="120"/>
      <point x="120" y="108" type="curve"/>
      <point x="135" y="95"/>
      <point x="152" y="95"/>
      <point x="165" y="95" type="curve" smooth="yes"/>
      <point x="178" y="95"/>
      <point x="195" y="95"/>
      <point x="210" y="108" type="curve"/>
      <point x="225" y="120"/>
      <point x="236" y="146"/>
      <point x="236" y="197" type="curve" smooth="yes"/>
      <point x="236" y="738" type="line"/>
      <point x="330" y="738" type="line"/>
      <point x="330" y="197" type="line" smooth="yes"/>
      <point x="330" y="136"/>
      <point x="317" y="89"/>
      <point x="290" y="56" type="curve"/>
      <point x="270" y="29"/>
      <point x="232" y="1"/>
      <point x="165" y="1" type="curve" smooth="yes"/>
    </contour>
  </outline>
</glyph>
<glyph name="endash" format="1">
  <advance width="376"/>
  <unicode hex="2013"/>
  <outline>
    <contour>
      <point x="307" y="323" type="line"/>
      <point x="0" y="323" type="line"/>
      <point x="0" y="417" type="line"/>
      <point x="307" y="417" type="line"/>
    </contour>
  </outline>
</glyph>
<glyph name="quoteright" format="1">
  <advance width="158"/>
  <unicode hex="2019"/>
  <outline>
    <contour>
      <point x="0" y="737" type="line"/>
      <point x="94" y="737" type="line"/>
      <point x="94" y="586" type="line"/>
      <point x="0" y="586" type="line"/>
    </contour>
  </outline>
</glyph>
<glyph name="quotedblleft" format="1">
  <advance width="283"/>
  <unicode hex="201C"/>
  <outline>
    <contour>
      <point x="0" y="586" type="line"/>
      <point x="0" y="737" type="line"/>
      <point x="94" y="737" type="line"/>
      <point x="94" y="586" type="line"/>
    </contour>
    <contour>
      <point x="139" y="737" type="line"/>
      <point x="233" y="737" type="line"/>
      <point x="233" y="586" type="line"/>
      <point x="139" y="586" type="line"/>
    </contour>
  </outline>
</glyph>
